ffmpeg started on 2015-06-30 at 23:25:15
Report written to "pcm_test_s24le_ar-128000_ac-1.txt"
Command line:
ffmpeg -y -f lavfi -i sine -c:a pcm_s24le -ar 128000 -ac 1 -t 1 pcm_test_s24le_ar-128000_ac-1.mka
ffmpeg version 2.6.3 Copyright (c) 2000-2015 the FFmpeg developers
  built with Apple LLVM version 6.1.0 (clang-602.0.49) (based on LLVM 3.6.0svn)
  configuration: --prefix=/usr/local/Cellar/ffmpeg/2.6.3 --enable-shared --enable-pthreads --enable-gpl --enable-version3 --enable-hardcoded-tables --enable-avresample --cc=clang --host-cflags= --host-ldflags= --enable-libx264 --enable-libmp3lame --enable-libvo-aacenc --enable-libxvid --enable-libfaac --enable-ffplay --enable-nonfree --enable-vda
  libavutil      54. 20.100 / 54. 20.100
  libavcodec     56. 26.100 / 56. 26.100
  libavformat    56. 25.101 / 56. 25.101
  libavdevice    56.  4.100 / 56.  4.100
  libavfilter     5. 11.102 /  5. 11.102
  libavresample   2.  1.  0 /  2.  1.  0
  libswscale      3.  1.101 /  3.  1.101
  libswresample   1.  1.100 /  1.  1.100
  libpostproc    53.  3.100 / 53.  3.100
Splitting the commandline.
Reading option '-y' ... matched as option 'y' (overwrite output files) with argument '1'.
Reading option '-f' ... matched as option 'f' (force format) with argument 'lavfi'.
Reading option '-i' ... matched as input file with argument 'sine'.
Reading option '-c:a' ... matched as option 'c' (codec name) with argument 'pcm_s24le'.
Reading option '-ar' ... matched as option 'ar' (set audio sampling rate (in Hz)) with argument '128000'.
Reading option '-ac' ... matched as option 'ac' (set number of audio channels) with argument '1'.
Reading option '-t' ... matched as option 't' (record or transcode "duration" seconds of audio/video) with argument '1'.
Reading option 'pcm_test_s24le_ar-128000_ac-1.mka' ... matched as output file.
Finished splitting the commandline.
Parsing a group of options: global .
Applying option y (overwrite output files) with argument 1.
Successfully parsed a group of options.
Parsing a group of options: input file sine.
Applying option f (force format) with argument lavfi.
Successfully parsed a group of options.
Opening an input file: sine.
detected 4 logical cores
[AVFilterGraph @ 0x7f97e1e021e0] query_formats: 2 queried, 3 merged, 0 already done, 0 delayed
[lavfi @ 0x7f97e381dc00] All info found
Input #0, lavfi, from 'sine':
  Duration: N/A, start: 0.000000, bitrate: 705 kb/s
    Stream #0:0, 1, 1/44100: Audio: pcm_s16le, 44100 Hz, mono, s16, 705 kb/s
Successfully opened the file.
Parsing a group of options: output file pcm_test_s24le_ar-128000_ac-1.mka.
Applying option c:a (codec name) with argument pcm_s24le.
Applying option ar (set audio sampling rate (in Hz)) with argument 128000.
Applying option ac (set number of audio channels) with argument 1.
Applying option t (record or transcode "duration" seconds of audio/video) with argument 1.
Successfully parsed a group of options.
Opening an output file: pcm_test_s24le_ar-128000_ac-1.mka.
Successfully opened the file.
[graph 0 input from stream 0:0 @ 0x7f97e1d216c0] Setting 'time_base' to value '1/44100'
[graph 0 input from stream 0:0 @ 0x7f97e1d216c0] Setting 'sample_rate' to value '44100'
[graph 0 input from stream 0:0 @ 0x7f97e1d216c0] Setting 'sample_fmt' to value 's16'
[graph 0 input from stream 0:0 @ 0x7f97e1d216c0] Setting 'channel_layout' to value '0x4'
[graph 0 input from stream 0:0 @ 0x7f97e1d216c0] tb:1/44100 samplefmt:s16 samplerate:44100 chlayout:0x4
[audio format for output stream 0:0 @ 0x7f97e1d21be0] Setting 'sample_fmts' to value 's32'
[audio format for output stream 0:0 @ 0x7f97e1d21be0] Setting 'sample_rates' to value '128000'
[audio format for output stream 0:0 @ 0x7f97e1d21be0] Setting 'channel_layouts' to value '0x4'
[auto-inserted resampler 0 @ 0x7f97e1d22860] Setting 'output_sample_bits' to value '24'
[audio format for output stream 0:0 @ 0x7f97e1d21be0] auto-inserting filter 'auto-inserted resampler 0' between the filter 'Parsed_anull_0' and the filter 'audio format for output stream 0:0'
[AVFilterGraph @ 0x7f97e1f01ec0] query_formats: 5 queried, 9 merged, 3 already done, 0 delayed
[auto-inserted resampler 0 @ 0x7f97e1d22860] ch:1 chl:mono fmt:s16 r:44100Hz -> ch:1 chl:mono fmt:s32 r:128000Hz
Output #0, matroska, to 'pcm_test_s24le_ar-128000_ac-1.mka':
  Metadata:
    encoder         : Lavf56.25.101
    Stream #0:0, 0, 1/1000: Audio: pcm_s24le ([1][0][0][0] / 0x0001), 128000 Hz, mono, s32, 3072 kb/s
    Metadata:
      encoder         : Lavc56.26.100 pcm_s24le
Stream mapping:
  Stream #0:0 -> #0:0 (pcm_s16le (native) -> pcm_s24le (native))
Press [q] to stop, [?] for help
[matroska @ 0x7f97e3014a00] Writing block at offset 598, size 8778, pts 0, dts 0, duration 23, flags 128
[matroska @ 0x7f97e3014a00] Writing block at offset 9383, size 8916, pts 23, dts 23, duration 23, flags 128
[matroska @ 0x7f97e3014a00] Writing block at offset 18306, size 8919, pts 46, dts 46, duration 23, flags 128
[matroska @ 0x7f97e3014a00] Writing block at offset 27232, size 8916, pts 69, dts 69, duration 23, flags 128
[matroska @ 0x7f97e3014a00] Writing block at offset 36155, size 8916, pts 93, dts 93, duration 23, flags 128
[matroska @ 0x7f97e3014a00] Writing block at offset 45078, size 8916, pts 116, dts 116, duration 23, flags 128
[matroska @ 0x7f97e3014a00] Writing block at offset 54001, size 8916, pts 139, dts 139, duration 23, flags 128
[matroska @ 0x7f97e3014a00] Writing block at offset 62924, size 8916, pts 162, dts 162, duration 23, flags 128
[matroska @ 0x7f97e3014a00] Writing block at offset 71847, size 8916, pts 185, dts 185, duration 23, flags 128
[matroska @ 0x7f97e3014a00] Writing block at offset 80770, size 8919, pts 209, dts 209, duration 23, flags 128
[matroska @ 0x7f97e3014a00] Writing block at offset 89696, size 8916, pts 232, dts 232, duration 23, flags 128
[matroska @ 0x7f97e3014a00] Writing block at offset 98619, size 8916, pts 255, dts 255, duration 23, flags 128
[matroska @ 0x7f97e3014a00] Writing block at offset 107542, size 8916, pts 278, dts 278, duration 23, flags 128
[matroska @ 0x7f97e3014a00] Writing block at offset 116465, size 8916, pts 302, dts 302, duration 23, flags 128
[matroska @ 0x7f97e3014a00] Writing block at offset 125388, size 8916, pts 325, dts 325, duration 23, flags 128
[matroska @ 0x7f97e3014a00] Writing block at offset 134311, size 8919, pts 348, dts 348, duration 23, flags 128
[matroska @ 0x7f97e3014a00] Writing block at offset 143237, size 8916, pts 371, dts 371, duration 23, flags 128
[matroska @ 0x7f97e3014a00] Writing block at offset 152160, size 8916, pts 394, dts 394, duration 23, flags 128
[matroska @ 0x7f97e3014a00] Writing block at offset 161083, size 8916, pts 418, dts 418, duration 23, flags 128
[matroska @ 0x7f97e3014a00] Writing block at offset 170006, size 8916, pts 441, dts 441, duration 23, flags 128
[matroska @ 0x7f97e3014a00] Writing block at offset 178929, size 8916, pts 464, dts 464, duration 23, flags 128
[matroska @ 0x7f97e3014a00] Writing block at offset 187852, size 8916, pts 487, dts 487, duration 23, flags 128
[matroska @ 0x7f97e3014a00] Writing block at offset 196775, size 8919, pts 510, dts 510, duration 23, flags 128
[matroska @ 0x7f97e3014a00] Writing block at offset 205701, size 8916, pts 534, dts 534, duration 23, flags 128
[matroska @ 0x7f97e3014a00] Writing block at offset 214624, size 8916, pts 557, dts 557, duration 23, flags 128
[matroska @ 0x7f97e3014a00] Writing block at offset 223547, size 8916, pts 580, dts 580, duration 23, flags 128
[matroska @ 0x7f97e3014a00] Writing block at offset 232470, size 8916, pts 603, dts 603, duration 23, flags 128
[matroska @ 0x7f97e3014a00] Writing block at offset 241393, size 8916, pts 627, dts 627, duration 23, flags 128
[matroska @ 0x7f97e3014a00] Writing block at offset 250316, size 8919, pts 650, dts 650, duration 23, flags 128
[matroska @ 0x7f97e3014a00] Writing block at offset 259242, size 8916, pts 673, dts 673, duration 23, flags 128
[matroska @ 0x7f97e3014a00] Writing block at offset 268165, size 8916, pts 696, dts 696, duration 23, flags 128
[matroska @ 0x7f97e3014a00] Writing block at offset 277088, size 8916, pts 719, dts 719, duration 23, flags 128
[matroska @ 0x7f97e3014a00] Writing block at offset 286011, size 8916, pts 743, dts 743, duration 23, flags 128
[matroska @ 0x7f97e3014a00] Writing block at offset 294934, size 8916, pts 766, dts 766, duration 23, flags 128
[matroska @ 0x7f97e3014a00] Writing block at offset 303857, size 8916, pts 789, dts 789, duration 23, flags 128
[matroska @ 0x7f97e3014a00] Writing block at offset 312780, size 8919, pts 812, dts 812, duration 23, flags 128
[matroska @ 0x7f97e3014a00] Writing block at offset 321706, size 8916, pts 836, dts 836, duration 23, flags 128
[matroska @ 0x7f97e3014a00] Writing block at offset 330629, size 8916, pts 859, dts 859, duration 23, flags 128
[matroska @ 0x7f97e3014a00] Writing block at offset 339552, size 8916, pts 882, dts 882, duration 23, flags 128
[matroska @ 0x7f97e3014a00] Writing block at offset 348475, size 8916, pts 905, dts 905, duration 23, flags 128
[matroska @ 0x7f97e3014a00] Writing block at offset 357398, size 8916, pts 928, dts 928, duration 23, flags 128
[matroska @ 0x7f97e3014a00] Writing block at offset 366321, size 8919, pts 952, dts 952, duration 23, flags 128
[matroska @ 0x7f97e3014a00] Writing block at offset 375247, size 8916, pts 975, dts 975, duration 23, flags 128
[output stream 0:0 @ 0x7f97e1d21a60] EOF on sink link output stream 0:0:default.
No more output streams to write to, finishing.
[matroska @ 0x7f97e3014a00] Writing block at offset 384170, size 729, pts 998, dts 998, duration 2, flags 128
[matroska @ 0x7f97e3014a00] end duration = 1000
size=     376kB time=00:00:01.00 bitrate=3079.2kbits/s    
video:0kB audio:375kB subtitle:0kB other streams:0kB global headers:0kB muxing overhead: 0.235938%
Input file #0 (sine):
  Input stream #0:0 (audio): 45 packets read (92160 bytes); 45 frames decoded (46080 samples); 
  Total: 45 packets (92160 bytes) demuxed
Output file #0 (pcm_test_s24le_ar-128000_ac-1.mka):
  Output stream #0:0 (audio): 44 frames encoded (128000 samples); 44 packets muxed (384000 bytes); 
  Total: 44 packets (384000 bytes) muxed
45 frames successfully decoded, 0 decoding errors
[AVIOContext @ 0x7f97e1f01ce0] Statistics: 16 seeks, 56 writeouts
